<svg width="24" height="24" viewBox="0 0 24 24" fill="none" xmlns="http://www.w3.org/2000/svg">
<path d="M19.5 18C19.5 19.1046 16.4183 20 12 20C7.58172 20 4.5 19.1046 4.5 18" fill="transparent" />
<path d="M19.5 14C19.5 15.1046 16.4183 16 12 16C7.58172 16 4.5 15.1046 4.5 14" fill="transparent" />
<path d="M19.5 10C19.5 11.1046 16.4183 12 12 12C7.58172 12 4.5 11.1046 4.5 10" fill="transparent" />
<path d="M19.5 6C19.5 7.10457 16.4183 8 12 8C7.58172 8 4.5 7.10457 4.5 6" fill="transparent" />
<path d="M19.5 6C19.5 4.89543 16.4183 4 12 4C7.58172 4 4.5 4.89543 4.5 6" fill="transparent" />
<line x1="19.5" y1="18" x2="19.5" y2="6" fill="transparent" />
<line x1="4.5" y1="18" x2="4.5" y2="6" fill="transparent" />
</svg>
