<svg width="64" height="64" viewBox="0 0 64 64" fill="none" xmlns="http://www.w3.org/2000/svg">
<ellipse cx="32" cy="57" rx="31.5" ry="6" fill="#e1e4e8" stroke="transparent"/>
<rect x="1" y="7" width="62" height="50" fill="#e1e4e8" stroke="transparent"/>
<line x1="0.5" y1="7" x2="0.5" y2="57" stroke="black"/>
<line x1="63.5" y1="7" x2="63.5" y2="57" stroke="black"/>
<ellipse cx="32" cy="7" rx="31.5" ry="6" fill="#e1e4e8" stroke="black"/>
<path d="M63.5 24C63.5 27.3137 49.397 30 32 30C14.603 30 0.5 27.3137 0.5 24" stroke="black" fill="transparent"/>
<path d="M63.5 41C63.5 44.3137 49.397 47 32 47C14.603 47 0.5 44.3137 0.5 41" stroke="black" fill="transparent"/>
<path d="M63.5 57C63.5 60.3137 49.397 63 32 63C14.603 63 0.5 60.3137 0.5 57" stroke="black" fill="transparent"/>
</svg>
